<?xml version="1.0" encoding="UTF-8"?>
<svg width="54px" height="55px" viewBox="0 0 54 55" version="1.1" xmlns="http://www.w3.org/2000/svg" xmlns:xlink="http://www.w3.org/1999/xlink">
    <title>checkbox-checked</title>
    <g id="checkbox-checked" stroke="none" stroke-width="1" fill="none" fill-rule="evenodd">
        <path d="M40.4200099,48.7841797 C42.8457911,48.7841797 44.680101,48.1665039 45.9229395,46.9311523 C47.1657781,45.6958008 47.7871974,43.8802083 47.7871974,41.484375 L47.7871974,14.1494141 C47.7871974,11.7386068 47.1657781,9.91927083 45.9229395,8.69140625 C44.680101,7.46354167 42.8457911,6.84960938 40.4200099,6.84960938 L13.2198145,6.84960938 C10.7940333,6.84960938 8.95972339,7.46354167 7.71688485,8.69140625 C6.47404631,9.91927083 5.85262704,11.7386068 5.85262704,14.1494141 L5.85262704,41.484375 C5.85262704,43.8802083 6.47404631,45.6958008 7.71688485,46.9311523 C8.95972339,48.1665039 10.7940333,48.7841797 13.2198145,48.7841797 L40.4200099,48.7841797 Z M24.3829005,38.8564453 C23.9486557,38.8564453 23.5593328,38.7666016 23.2149317,38.5869141 C22.8705307,38.4072266 22.5336166,38.1152344 22.2041895,37.7109375 L16.7012599,31.0175781 C16.5065984,30.7630208 16.3568588,30.5009766 16.2520411,30.2314453 C16.1472234,29.9619141 16.0948145,29.6848958 16.0948145,29.4003906 C16.0948145,28.8313802 16.2932195,28.3409831 16.6900294,27.9291992 C17.0868393,27.5174154 17.5697494,27.3115234 18.1387599,27.3115234 C18.4981349,27.3115234 18.820075,27.3863932 19.1045802,27.5361328 C19.3890854,27.6858724 19.6810776,27.9479167 19.9805567,28.3222656 L24.2930567,33.8027344 L33.5918849,18.9335938 C34.0710515,18.1549479 34.6774968,17.765625 35.4112208,17.765625 C35.9652572,17.765625 36.4631414,17.9453125 36.9048731,18.3046875 C37.3466049,18.6640625 37.5674708,19.1357422 37.5674708,19.7197266 C37.5674708,19.9742839 37.507575,20.2400716 37.3877833,20.5170898 C37.2679916,20.7941081 37.133226,21.0524089 36.9834864,21.2919922 L26.4717677,37.6884766 C26.2022364,38.0777995 25.8915268,38.3697917 25.5396388,38.5644531 C25.1877507,38.7591146 24.8021713,38.8564453 24.3829005,38.8564453 Z" id="􀃳" fill="#404040" fill-rule="nonzero"></path>
        <path d="M40.1504786,44.359375 L13.4893458,44.359375 C12.4411687,44.359375 11.6438054,44.0898438 11.0972559,43.5507812 C10.5507065,43.0117188 10.2774317,42.195638 10.2774317,41.1025391 L10.2774317,14.5087891 C10.2774317,13.4306641 10.5507065,12.6220703 11.0972559,12.0830078 C11.6438054,11.5439453 12.4411687,11.2744141 13.4893458,11.2744141 L40.1504786,11.2744141 C41.1836817,11.2744141 41.9773015,11.5439453 42.531338,12.0830078 C43.0853744,12.6220703 43.3623927,13.4306641 43.3623927,14.5087891 L43.3623927,41.1025391 C43.3623927,42.195638 43.0853744,43.0117188 42.531338,43.5507812 C41.9773015,44.0898438 41.1836817,44.359375 40.1504786,44.359375 Z" id="Path" stroke="#FFFFFF" stroke-width="2"></path>
    </g>
</svg>