<?xml version="1.0" encoding="UTF-8"?>
<svg width="54px" height="55px" viewBox="0 0 54 55" version="1.1" xmlns="http://www.w3.org/2000/svg" xmlns:xlink="http://www.w3.org/1999/xlink">
    <title>checkbox-unchecked</title>
    <g id="checkbox-unchecked" stroke="none" stroke-width="1" fill="none" fill-rule="evenodd">
        <path d="M40.4200099,48.7841797 C42.8457911,48.7841797 44.680101,48.1665039 45.9229395,46.9311523 C47.1657781,45.6958008 47.7871974,43.8802083 47.7871974,41.484375 L47.7871974,14.1494141 C47.7871974,11.7386068 47.1657781,9.91927083 45.9229395,8.69140625 C44.680101,7.46354167 42.8457911,6.84960938 40.4200099,6.84960938 L13.2198145,6.84960938 C10.7940333,6.84960938 8.95972339,7.46354167 7.71688485,8.69140625 C6.47404631,9.91927083 5.85262704,11.7386068 5.85262704,14.1494141 L5.85262704,41.484375 C5.85262704,43.8802083 6.47404631,45.6958008 7.71688485,46.9311523 C8.95972339,48.1665039 10.7940333,48.7841797 13.2198145,48.7841797 L40.4200099,48.7841797 Z M40.1504786,44.359375 L13.4893458,44.359375 C12.4411687,44.359375 11.6438054,44.0898438 11.0972559,43.5507812 C10.5507065,43.0117188 10.2774317,42.195638 10.2774317,41.1025391 L10.2774317,14.5087891 C10.2774317,13.4306641 10.5507065,12.6220703 11.0972559,12.0830078 C11.6438054,11.5439453 12.4411687,11.2744141 13.4893458,11.2744141 L40.1504786,11.2744141 C41.1836817,11.2744141 41.9773015,11.5439453 42.531338,12.0830078 C43.0853744,12.6220703 43.3623927,13.4306641 43.3623927,14.5087891 L43.3623927,41.1025391 C43.3623927,42.195638 43.0853744,43.0117188 42.531338,43.5507812 C41.9773015,44.0898438 41.1836817,44.359375 40.1504786,44.359375 Z" id="􀃲" fill="#404040" fill-rule="nonzero"></path>
    </g>
</svg>