<?xml version="1.0" encoding="UTF-8"?>
<svg width="48px" height="48px" viewBox="0 0 48 48" version="1.1" xmlns="http://www.w3.org/2000/svg" xmlns:xlink="http://www.w3.org/1999/xlink">
    <title>favicon</title>
    <defs>
        <path d="M24,46 C36.1502645,46 46,36.1502645 46,24 C46,11.8497355 36.1502645,2 24,2 C11.8497355,2 2,11.8497355 2,24 C2,27.4922184 2.81368424,30.7943907 4.2618072,33.7272714 C7.85205092,40.998585 15.3419539,46 24,46 Z" id="path-1"></path>
    </defs>
    <g id="favicon" stroke="none" stroke-width="1" fill="none" fill-rule="evenodd">
        <mask id="mask-2" fill="white">
            <use xlink:href="#path-1"></use>
        </mask>
        <use id="Oval" fill="#000000" xlink:href="#path-1"></use>
        <g id="Group" mask="url(#mask-2)">
            <g transform="translate(-7.000000, 2.000000)" id="Logo-Copy">
                <path d="M31,44 C43.1502645,44 53,34.1502645 53,22 C53,9.8497355 43.1502645,0 31,0 C18.8497355,0 9,9.8497355 9,22 C9,25.4922184 9.81368424,28.7943907 11.2618072,31.7272714 C14.8520509,38.998585 22.3419539,44 31,44 Z" id="Oval" fill="#000000"></path>
                <path d="M12.7006643,25.6052458 C16.7122976,23.5963887 21.4848788,19.5958309 24.8694949,16.2310044 C28.6918564,12.430992 31.0755462,10.3962104 33.2161602,11.1585398 C37.8074863,12.7936328 23.9101764,25.1895315 26.9303545,26.4932726 C28.2380817,26.8896009 30.7033713,23.606911 33.843242,20.9924516 C35.3176737,19.7647444 37.1907198,19.0802723 38.1375147,19.5958309 C41.2114986,21.2697085 33.3198237,25.720833 35.2699756,27.564948 C36.7221341,28.9487939 52.7249378,28.7498663 53.05427,28.7498663 C53.3836023,28.7498663 40.1012402,29.004676 35.7263156,28.6355633 C34.4127414,28.524737 33.8049997,27.5575947 34.4784201,26.2792159 C35.8180458,23.6737337 38.652199,21.2478243 37.2644636,20.4807812 C35.8576474,19.7031916 32.9610306,22.6467321 30.670998,24.8639282 C28.813165,26.6626713 26.859353,27.9119449 26.1306247,27.2987861 C25.0137441,26.3590322 26.1306247,23.5553186 29.0336838,19.7289027 C30.78905,17.4152188 33.8895662,13.3649257 32.4697082,12.4535527 C31.0498501,11.5421798 29.5290768,13.2514803 27.0505138,15.3789262 C18.5493603,22.675793 16.4708976,24.8373872 9.50466564,27.2315499 C1.81251064,29.4631435 -1.12246498,28.9487939 0.380000534,28.9487939 C1.88246605,28.9487939 8.68903112,27.6141028 12.7006643,25.6052458 Z" id="Path" stroke="#FFFFFF" stroke-width="1.125" fill="#FFFFFF"></path>
                <path d="M45.7695167,24.4338235 C46.2464898,24.4338235 46.680598,24.5757572 46.9939604,24.8133582 C47.2644496,25.0184515 47.4465613,25.2973514 47.4465613,25.6147468 C46.7329111,25.9648981 46.2512082,25.9779412 45.7695167,25.9779412 C45.2878252,25.9779412 44.8061224,25.9648981 44.4538035,25.9383988 C44.0924721,25.2973514 44.2745838,25.0184515 44.545073,24.8133582 C44.8584355,24.5757572 45.2925436,24.4338235 45.7695167,24.4338235 Z" id="Oval" stroke="#FFFFFF" stroke-width="0.75" fill="#FFFFFF"></path>
            </g>
        </g>
    </g>
</svg>