<?xml version="1.0" encoding="UTF-8"?>
<svg width="512px" height="512px" viewBox="0 0 512 512" version="1.1" xmlns="http://www.w3.org/2000/svg" xmlns:xlink="http://www.w3.org/1999/xlink">
    <title>minimaliz.me logo</title>
    <g id="minimaliz.me-logo" stroke="none" stroke-width="1" fill="none" fill-rule="evenodd">
        <g id="Logo-Copy" transform="translate(63.000000, 173.000000)" fill="#000000">
            <path d="M93.6756476,108.249899 C123.264048,93.3608261 158.464934,63.7098371 183.428676,38.7707065 C211.621074,10.6061032 229.202334,-4.47511562 244.990753,1.17505176 C278.854764,13.2938924 176.353078,105.168745 198.628854,114.8317 C208.274191,117.769171 226.457302,93.4388143 249.615888,74.0611899 C260.49078,64.9617756 274.305711,59.8886644 281.288938,63.7098371 C303.961566,76.1161386 245.755338,109.106599 260.138975,122.774651 C270.849587,133.03132 351.531276,131.556926 353.960315,131.556926 C356.389354,131.556926 295.772689,133.445503 263.504779,130.709745 C253.816316,129.888332 249.333826,122.720151 254.300739,113.245173 C264.181348,93.9340852 285.085069,75.9539395 274.849619,70.2688355 C264.473436,64.5055636 243.109006,86.3222434 226.218529,102.755466 C212.515804,116.087234 198.105171,125.346493 192.730327,120.801935 C184.492607,113.836748 192.730327,93.0564264 214.142273,64.6961272 C227.089239,47.5477646 249.957559,17.5281522 239.485184,10.7733167 C229.012809,4.01848114 217.796118,16.6873275 199.515107,32.4553469 C136.813579,86.537634 121.483567,102.558752 70.1030816,120.3036 C13.3684431,136.843532 -8.27890819,133.03132 2.80275072,133.03132 C13.8844096,133.03132 64.0872473,123.138972 93.6756476,108.249899 Z" id="Path" stroke="#000000" stroke-width="6.25"></path>
            <path d="M351.703813,114.96775 C352.437163,113.568369 352.841917,112.033924 352.841917,110.424677 C352.841917,103.869663 346.126188,98.5557744 337.841917,98.5557744 C329.557646,98.5557744 322.841917,103.869663 322.841917,110.424677 C322.841917,112.033924 323.246671,113.568369 323.980021,114.96775 C324.740264,116.418449 350.94357,116.418449 351.703813,114.96775 Z" id="Oval"></path>
        </g>
    </g>
</svg>