<?xml version="1.0" encoding="UTF-8"?>
<svg width="485px" height="297px" viewBox="0 0 485 297" version="1.1" xmlns="http://www.w3.org/2000/svg" xmlns:xlink="http://www.w3.org/1999/xlink">
    <title>minimaliz.me logo format</title>
    <g id="minimaliz.me-logo-format" stroke="none" stroke-width="1" fill="none" fill-rule="evenodd">
        <g id="Logo-Copy" transform="translate(20.000000, 65.000000)" fill="#000000">
            <path d="M117.481145,135.504225 C154.588753,116.866495 198.735129,79.7502088 230.042828,48.5320962 C265.399672,13.2764261 287.448802,-5.60182574 307.249482,1.47089723 C349.719248,16.6409261 221.169131,131.64732 249.105779,143.743141 C261.202256,147.420186 284.006184,116.964119 313.049988,92.7077455 C326.688482,81.3173507 344.014158,74.9669708 352.772011,79.7502088 C381.206362,95.2800734 308.208369,136.576618 326.247274,153.685907 C339.679741,166.524921 440.864813,164.679315 443.911136,164.679315 C446.957459,164.679315 370.936471,167.043383 330.468419,163.618838 C318.317858,162.590615 312.696247,153.617684 318.925386,141.757169 C331.316923,117.584085 357.53284,95.077037 344.696288,87.9605812 C331.683239,80.7462772 304.889533,108.055793 283.706732,128.626445 C266.521776,145.314784 248.449015,156.905267 241.708279,151.216515 C231.377133,142.497687 241.708279,116.485456 268.561575,80.9848195 C284.798712,59.5189743 313.478488,21.9412553 300.344801,13.4857393 C287.211114,5.03022335 273.14396,20.8887342 250.217253,40.626704 C171.581583,108.325413 152.355803,128.380204 87.9181571,150.592713 C16.7657234,171.296942 -10.3828011,166.524921 3.51500494,166.524921 C17.412811,166.524921 80.3735379,154.141954 117.481145,135.504225 Z" id="Path" stroke="#000000" stroke-width="6.25"></path>
            <path d="M441.558401,144.632198 C442.487311,142.872976 443,140.943959 443,138.920906 C443,130.680317 434.49341,124 424,124 C413.50659,124 405,130.680317 405,138.920906 C405,140.943959 405.512689,142.872976 406.441599,144.632198 C407.404573,146.455934 440.595427,146.455934 441.558401,144.632198 Z" id="Oval"></path>
        </g>
    </g>
</svg>